<?xml version="1.0" encoding="UTF-8" standalone="no"?>
<!DOCTYPE svg PUBLIC "-//W3C//DTD SVG 1.1//EN"
 "http://www.w3.org/Graphics/SVG/1.1/DTD/svg11.dtd">
<!-- Generated by graphviz version 2.47.3 (20210619.1520)
 -->
<!-- Title: G Pages: 1 -->
<svg width="1164pt" height="2808pt"
 viewBox="0.00 0.00 1164.00 2808.00" xmlns="http://www.w3.org/2000/svg" xmlns:xlink="http://www.w3.org/1999/xlink">
<g id="graph0" class="graph" transform="scale(1 1) rotate(0) translate(36 2772)">
<title>G</title>
<polygon fill="#f7f7f7" stroke="transparent" points="-36,36 -36,-2772 1128,-2772 1128,36 -36,36"/>
<!-- appmodelsappointment -->
<g id="node1" class="node">
<title>appmodelsappointment</title>
<polygon fill="none" stroke="black" points="476,-687 318,-687 318,-317 476,-317 476,-687"/>
<polygon fill="#d3d3d3" stroke="transparent" points="318,-650 318,-687 476,-687 476,-650 318,-650"/>
<polygon fill="none" stroke="black" points="318,-650 318,-687 476,-687 476,-650 318,-650"/>
<text text-anchor="start" x="361.5" y="-664.8" font-family="Helvetica Neue" font-size="14.00" fill="#333333">Appointment</text>
<polygon fill="#ffffff" stroke="transparent" points="318,-613 318,-650 476,-650 476,-613 318,-613"/>
<polygon fill="none" stroke="black" points="318,-613 318,-650 476,-650 476,-613 318,-613"/>
<text text-anchor="start" x="329" y="-627.8" font-family="Helvetica Neue" font-size="14.00" fill="#333333">id (integer)</text>
<polygon fill="#ffffff" stroke="transparent" points="318,-576 318,-613 476,-613 476,-576 318,-576"/>
<polygon fill="none" stroke="black" points="318,-576 318,-613 476,-613 476,-576 318,-576"/>
<text text-anchor="start" x="329" y="-590.8" font-family="Helvetica Neue" font-size="14.00" fill="#333333">created_at (datetime)</text>
<polygon fill="#ffffff" stroke="transparent" points="318,-539 318,-576 476,-576 476,-539 318,-539"/>
<polygon fill="none" stroke="black" points="318,-539 318,-576 476,-576 476,-539 318,-539"/>
<text text-anchor="start" x="329" y="-553.8" font-family="Helvetica Neue" font-size="14.00" fill="#333333">updated_at (datetime)</text>
<polygon fill="#ffffff" stroke="transparent" points="318,-502 318,-539 476,-539 476,-502 318,-502"/>
<polygon fill="none" stroke="black" points="318,-502 318,-539 476,-539 476,-502 318,-502"/>
<text text-anchor="start" x="329" y="-516.8" font-family="Helvetica Neue" font-size="14.00" fill="#333333">doctor_id (integer)</text>
<polygon fill="#ffffff" stroke="transparent" points="318,-465 318,-502 476,-502 476,-465 318,-465"/>
<polygon fill="none" stroke="black" points="318,-465 318,-502 476,-502 476,-465 318,-465"/>
<text text-anchor="start" x="329" y="-479.8" font-family="Helvetica Neue" font-size="14.00" fill="#333333">patient_id (integer)</text>
<polygon fill="#ffffff" stroke="transparent" points="318,-428 318,-465 476,-465 476,-428 318,-428"/>
<polygon fill="none" stroke="black" points="318,-428 318,-465 476,-465 476,-428 318,-428"/>
<text text-anchor="start" x="329" y="-442.8" font-family="Helvetica Neue" font-size="14.00" fill="#333333">phone (string)</text>
<polygon fill="#ffffff" stroke="transparent" points="318,-391 318,-428 476,-428 476,-391 318,-391"/>
<polygon fill="none" stroke="black" points="318,-391 318,-428 476,-428 476,-391 318,-391"/>
<text text-anchor="start" x="329" y="-405.8" font-family="Helvetica Neue" font-size="14.00" fill="#333333">appointment_date (date)</text>
<polygon fill="#ffffff" stroke="transparent" points="318,-354 318,-391 476,-391 476,-354 318,-354"/>
<polygon fill="none" stroke="black" points="318,-354 318,-391 476,-391 476,-354 318,-354"/>
<text text-anchor="start" x="329" y="-368.8" font-family="Helvetica Neue" font-size="14.00" fill="#333333">charge (string)</text>
<polygon fill="#ffffff" stroke="transparent" points="318,-317 318,-354 476,-354 476,-317 318,-317"/>
<polygon fill="none" stroke="black" points="318,-317 318,-354 476,-354 476,-317 318,-317"/>
<text text-anchor="start" x="329" y="-331.8" font-family="Helvetica Neue" font-size="14.00" fill="#333333">note (string)</text>
</g>
<!-- appmodelsdoctor -->
<g id="node2" class="node">
<title>appmodelsdoctor</title>
<polygon fill="none" stroke="black" points="784,-960 640,-960 640,-442 784,-442 784,-960"/>
<polygon fill="#d3d3d3" stroke="transparent" points="640,-923 640,-960 784,-960 784,-923 640,-923"/>
<polygon fill="none" stroke="black" points="640,-923 640,-960 784,-960 784,-923 640,-923"/>
<text text-anchor="start" x="693" y="-937.8" font-family="Helvetica Neue" font-size="14.00" fill="#333333">Doctor</text>
<polygon fill="#ffffff" stroke="transparent" points="640,-886 640,-923 784,-923 784,-886 640,-886"/>
<polygon fill="none" stroke="black" points="640,-886 640,-923 784,-923 784,-886 640,-886"/>
<text text-anchor="start" x="651" y="-900.8" font-family="Helvetica Neue" font-size="14.00" fill="#333333">id (integer)</text>
<polygon fill="#ffffff" stroke="transparent" points="640,-849 640,-886 784,-886 784,-849 640,-849"/>
<polygon fill="none" stroke="black" points="640,-849 640,-886 784,-886 784,-849 640,-849"/>
<text text-anchor="start" x="651" y="-863.8" font-family="Helvetica Neue" font-size="14.00" fill="#333333">created_at (datetime)</text>
<polygon fill="#ffffff" stroke="transparent" points="640,-812 640,-849 784,-849 784,-812 640,-812"/>
<polygon fill="none" stroke="black" points="640,-812 640,-849 784,-849 784,-812 640,-812"/>
<text text-anchor="start" x="651" y="-826.8" font-family="Helvetica Neue" font-size="14.00" fill="#333333">updated_at (datetime)</text>
<polygon fill="#ffffff" stroke="transparent" points="640,-775 640,-812 784,-812 784,-775 640,-775"/>
<polygon fill="none" stroke="black" points="640,-775 640,-812 784,-812 784,-775 640,-775"/>
<text text-anchor="start" x="651" y="-789.8" font-family="Helvetica Neue" font-size="14.00" fill="#333333">name (string)</text>
<polygon fill="#ffffff" stroke="transparent" points="640,-738 640,-775 784,-775 784,-738 640,-738"/>
<polygon fill="none" stroke="black" points="640,-738 640,-775 784,-775 784,-738 640,-738"/>
<text text-anchor="start" x="651" y="-752.8" font-family="Helvetica Neue" font-size="14.00" fill="#333333">age (string)</text>
<polygon fill="#ffffff" stroke="transparent" points="640,-701 640,-738 784,-738 784,-701 640,-701"/>
<polygon fill="none" stroke="black" points="640,-701 640,-738 784,-738 784,-701 640,-701"/>
<text text-anchor="start" x="651" y="-715.8" font-family="Helvetica Neue" font-size="14.00" fill="#333333">gender (string)</text>
<polygon fill="#ffffff" stroke="transparent" points="640,-664 640,-701 784,-701 784,-664 640,-664"/>
<polygon fill="none" stroke="black" points="640,-664 640,-701 784,-701 784,-664 640,-664"/>
<text text-anchor="start" x="651" y="-678.8" font-family="Helvetica Neue" font-size="14.00" fill="#333333">phone (string)</text>
<polygon fill="#ffffff" stroke="transparent" points="640,-627 640,-664 784,-664 784,-627 640,-627"/>
<polygon fill="none" stroke="black" points="640,-627 640,-664 784,-664 784,-627 640,-627"/>
<text text-anchor="start" x="651" y="-641.8" font-family="Helvetica Neue" font-size="14.00" fill="#333333">email (string)</text>
<polygon fill="#ffffff" stroke="transparent" points="640,-590 640,-627 784,-627 784,-590 640,-590"/>
<polygon fill="none" stroke="black" points="640,-590 640,-627 784,-627 784,-590 640,-590"/>
<text text-anchor="start" x="651" y="-604.8" font-family="Helvetica Neue" font-size="14.00" fill="#333333">password (string)</text>
<polygon fill="#ffffff" stroke="transparent" points="640,-553 640,-590 784,-590 784,-553 640,-553"/>
<polygon fill="none" stroke="black" points="640,-553 640,-590 784,-590 784,-553 640,-553"/>
<text text-anchor="start" x="651" y="-567.8" font-family="Helvetica Neue" font-size="14.00" fill="#333333">fee (string)</text>
<polygon fill="#ffffff" stroke="transparent" points="640,-516 640,-553 784,-553 784,-516 640,-516"/>
<polygon fill="none" stroke="black" points="640,-516 640,-553 784,-553 784,-516 640,-516"/>
<text text-anchor="start" x="651" y="-530.8" font-family="Helvetica Neue" font-size="14.00" fill="#333333">specialize_id (integer)</text>
<polygon fill="#ffffff" stroke="transparent" points="640,-479 640,-516 784,-516 784,-479 640,-479"/>
<polygon fill="none" stroke="black" points="640,-479 640,-516 784,-516 784,-479 640,-479"/>
<text text-anchor="start" x="651" y="-493.8" font-family="Helvetica Neue" font-size="14.00" fill="#333333">address (string)</text>
<polygon fill="#ffffff" stroke="transparent" points="640,-442 640,-479 784,-479 784,-442 640,-442"/>
<polygon fill="none" stroke="black" points="640,-442 640,-479 784,-479 784,-442 640,-442"/>
<text text-anchor="start" x="651" y="-456.8" font-family="Helvetica Neue" font-size="14.00" fill="#333333">file (string)</text>
</g>
<!-- appmodelsappointment&#45;&gt;appmodelsdoctor -->
<g id="edge1" class="edge">
<title>appmodelsappointment:doctor_id&#45;&gt;appmodelsdoctor:id</title>
<path fill="none" stroke="#f77f00" stroke-width="1.8" d="M481.47,-529.92C498.89,-558.35 552,-645 552,-645 552,-645 625.31,-864.09 637.34,-900.04"/>
<polygon fill="#f77f00" stroke="#f77f00" stroke-width="1.8" points="481.23,-529.53 479.84,-518.65 478.61,-525.26 476,-521 476,-521 476,-521 478.61,-525.26 472.16,-523.35 481.23,-529.53 481.23,-529.53"/>
<polygon fill="#f77f00" stroke="#f77f00" stroke-width="1.8" points="643.42,-902.47 633.94,-905.64 633.31,-903.74 642.79,-900.57 643.42,-902.47"/>
<polyline fill="none" stroke="#f77f00" stroke-width="1.8" points="639,-905 637.41,-900.26 "/>
<text text-anchor="middle" x="550" y="-648.8" font-family="Helvetica Neue" font-size="14.00"> </text>
<text text-anchor="middle" x="602.75" y="-697.32" font-family="Helvetica Neue" font-size="14.00">BelongsTo</text>
<text text-anchor="middle" x="602.75" y="-682.32" font-family="Helvetica Neue" font-size="14.00">doctor</text>
</g>
<!-- appmodelspatient -->
<g id="node3" class="node">
<title>appmodelspatient</title>
<polygon fill="none" stroke="black" points="784,-370 640,-370 640,0 784,0 784,-370"/>
<polygon fill="#d3d3d3" stroke="transparent" points="640,-333 640,-370 784,-370 784,-333 640,-333"/>
<polygon fill="none" stroke="black" points="640,-333 640,-370 784,-370 784,-333 640,-333"/>
<text text-anchor="start" x="693" y="-347.8" font-family="Helvetica Neue" font-size="14.00" fill="#333333">Patient</text>
<polygon fill="#ffffff" stroke="transparent" points="640,-296 640,-333 784,-333 784,-296 640,-296"/>
<polygon fill="none" stroke="black" points="640,-296 640,-333 784,-333 784,-296 640,-296"/>
<text text-anchor="start" x="651" y="-310.8" font-family="Helvetica Neue" font-size="14.00" fill="#333333">id (integer)</text>
<polygon fill="#ffffff" stroke="transparent" points="640,-259 640,-296 784,-296 784,-259 640,-259"/>
<polygon fill="none" stroke="black" points="640,-259 640,-296 784,-296 784,-259 640,-259"/>
<text text-anchor="start" x="651" y="-273.8" font-family="Helvetica Neue" font-size="14.00" fill="#333333">created_at (datetime)</text>
<polygon fill="#ffffff" stroke="transparent" points="640,-222 640,-259 784,-259 784,-222 640,-222"/>
<polygon fill="none" stroke="black" points="640,-222 640,-259 784,-259 784,-222 640,-222"/>
<text text-anchor="start" x="651" y="-236.8" font-family="Helvetica Neue" font-size="14.00" fill="#333333">updated_at (datetime)</text>
<polygon fill="#ffffff" stroke="transparent" points="640,-185 640,-222 784,-222 784,-185 640,-185"/>
<polygon fill="none" stroke="black" points="640,-185 640,-222 784,-222 784,-185 640,-185"/>
<text text-anchor="start" x="651" y="-199.8" font-family="Helvetica Neue" font-size="14.00" fill="#333333">name (string)</text>
<polygon fill="#ffffff" stroke="transparent" points="640,-148 640,-185 784,-185 784,-148 640,-148"/>
<polygon fill="none" stroke="black" points="640,-148 640,-185 784,-185 784,-148 640,-148"/>
<text text-anchor="start" x="651" y="-162.8" font-family="Helvetica Neue" font-size="14.00" fill="#333333">age (string)</text>
<polygon fill="#ffffff" stroke="transparent" points="640,-111 640,-148 784,-148 784,-111 640,-111"/>
<polygon fill="none" stroke="black" points="640,-111 640,-148 784,-148 784,-111 640,-111"/>
<text text-anchor="start" x="651" y="-125.8" font-family="Helvetica Neue" font-size="14.00" fill="#333333">gender (string)</text>
<polygon fill="#ffffff" stroke="transparent" points="640,-74 640,-111 784,-111 784,-74 640,-74"/>
<polygon fill="none" stroke="black" points="640,-74 640,-111 784,-111 784,-74 640,-74"/>
<text text-anchor="start" x="651" y="-88.8" font-family="Helvetica Neue" font-size="14.00" fill="#333333">phone (string)</text>
<polygon fill="#ffffff" stroke="transparent" points="640,-37 640,-74 784,-74 784,-37 640,-37"/>
<polygon fill="none" stroke="black" points="640,-37 640,-74 784,-74 784,-37 640,-37"/>
<text text-anchor="start" x="651" y="-51.8" font-family="Helvetica Neue" font-size="14.00" fill="#333333">address (string)</text>
<polygon fill="#ffffff" stroke="transparent" points="640,0 640,-37 784,-37 784,0 640,0"/>
<polygon fill="none" stroke="black" points="640,0 640,-37 784,-37 784,0 640,0"/>
<text text-anchor="start" x="651" y="-14.8" font-family="Helvetica Neue" font-size="14.00" fill="#333333">photo (string)</text>
</g>
<!-- appmodelsappointment&#45;&gt;appmodelspatient -->
<g id="edge2" class="edge">
<title>appmodelsappointment:patient_id&#45;&gt;appmodelspatient:id</title>
<path fill="none" stroke="#f77f00" stroke-width="1.8" d="M483,-475.78C511.03,-446.89 614.62,-340.13 635.37,-318.74"/>
<polygon fill="#f77f00" stroke="#f77f00" stroke-width="1.8" points="482.96,-475.82 472.77,-479.87 479.48,-479.41 476,-483 476,-483 476,-483 479.48,-479.41 479.23,-486.13 482.96,-475.82 482.96,-475.82"/>
<polygon fill="#f77f00" stroke="#f77f00" stroke-width="1.8" points="634.72,-312.24 641.89,-319.2 640.5,-320.63 633.32,-313.67 634.72,-312.24"/>
<polyline fill="none" stroke="#f77f00" stroke-width="1.8" points="639,-315 635.52,-318.59 "/>
<text text-anchor="middle" x="550" y="-410.8" font-family="Helvetica Neue" font-size="14.00"> </text>
<text text-anchor="middle" x="529.69" y="-386.06" font-family="Helvetica Neue" font-size="14.00">BelongsTo</text>
<text text-anchor="middle" x="529.69" y="-371.06" font-family="Helvetica Neue" font-size="14.00">patient</text>
</g>
<!-- appmodelsspecialize -->
<g id="node6" class="node">
<title>appmodelsspecialize</title>
<polygon fill="none" stroke="black" points="1092,-589.5 948,-589.5 948,-404.5 1092,-404.5 1092,-589.5"/>
<polygon fill="#d3d3d3" stroke="transparent" points="948,-552 948,-589 1092,-589 1092,-552 948,-552"/>
<polygon fill="none" stroke="black" points="948,-552 948,-589 1092,-589 1092,-552 948,-552"/>
<text text-anchor="start" x="992.5" y="-566.8" font-family="Helvetica Neue" font-size="14.00" fill="#333333">Specialize</text>
<polygon fill="#ffffff" stroke="transparent" points="948,-515 948,-552 1092,-552 1092,-515 948,-515"/>
<polygon fill="none" stroke="black" points="948,-515 948,-552 1092,-552 1092,-515 948,-515"/>
<text text-anchor="start" x="959" y="-529.8" font-family="Helvetica Neue" font-size="14.00" fill="#333333">id (integer)</text>
<polygon fill="#ffffff" stroke="transparent" points="948,-478 948,-515 1092,-515 1092,-478 948,-478"/>
<polygon fill="none" stroke="black" points="948,-478 948,-515 1092,-515 1092,-478 948,-478"/>
<text text-anchor="start" x="959" y="-492.8" font-family="Helvetica Neue" font-size="14.00" fill="#333333">created_at (datetime)</text>
<polygon fill="#ffffff" stroke="transparent" points="948,-441 948,-478 1092,-478 1092,-441 948,-441"/>
<polygon fill="none" stroke="black" points="948,-441 948,-478 1092,-478 1092,-441 948,-441"/>
<text text-anchor="start" x="959" y="-455.8" font-family="Helvetica Neue" font-size="14.00" fill="#333333">updated_at (datetime)</text>
<polygon fill="#ffffff" stroke="transparent" points="948,-404 948,-441 1092,-441 1092,-404 948,-404"/>
<polygon fill="none" stroke="black" points="948,-404 948,-441 1092,-441 1092,-404 948,-404"/>
<text text-anchor="start" x="959" y="-418.8" font-family="Helvetica Neue" font-size="14.00" fill="#333333">name (string)</text>
</g>
<!-- appmodelsdoctor&#45;&gt;appmodelsspecialize -->
<g id="edge6" class="edge">
<title>appmodelsdoctor:specialize_id&#45;&gt;appmodelsspecialize:id</title>
<path fill="none" stroke="#f77f00" stroke-width="1.8" d="M795.2,-534C826.42,-534 919.99,-534 942.9,-534"/>
<polygon fill="#f77f00" stroke="#f77f00" stroke-width="1.8" points="795,-534 785,-529.5 790,-534 785,-534 785,-534 785,-534 790,-534 785,-538.5 795,-534 795,-534"/>
<polygon fill="#f77f00" stroke="#f77f00" stroke-width="1.8" points="947,-529 947,-539 945,-539 945,-529 947,-529"/>
<polyline fill="none" stroke="#f77f00" stroke-width="1.8" points="948,-534 943,-534 "/>
<text text-anchor="middle" x="874" y="-537.8" font-family="Helvetica Neue" font-size="14.00"> </text>
<text text-anchor="middle" x="839.55" y="-522.8" font-family="Helvetica Neue" font-size="14.00">BelongsTo</text>
<text text-anchor="middle" x="839.55" y="-507.8" font-family="Helvetica Neue" font-size="14.00">specialize</text>
</g>
<!-- appmodelsbill -->
<g id="node4" class="node">
<title>appmodelsbill</title>
<polygon fill="none" stroke="black" points="469,-1277 325,-1277 325,-759 469,-759 469,-1277"/>
<polygon fill="#d3d3d3" stroke="transparent" points="325,-1240 325,-1277 469,-1277 469,-1240 325,-1240"/>
<polygon fill="none" stroke="black" points="325,-1240 325,-1277 469,-1277 469,-1240 325,-1240"/>
<text text-anchor="start" x="389.5" y="-1254.8" font-family="Helvetica Neue" font-size="14.00" fill="#333333">Bill</text>
<polygon fill="#ffffff" stroke="transparent" points="325,-1203 325,-1240 469,-1240 469,-1203 325,-1203"/>
<polygon fill="none" stroke="black" points="325,-1203 325,-1240 469,-1240 469,-1203 325,-1203"/>
<text text-anchor="start" x="336" y="-1217.8" font-family="Helvetica Neue" font-size="14.00" fill="#333333">id (integer)</text>
<polygon fill="#ffffff" stroke="transparent" points="325,-1166 325,-1203 469,-1203 469,-1166 325,-1166"/>
<polygon fill="none" stroke="black" points="325,-1166 325,-1203 469,-1203 469,-1166 325,-1166"/>
<text text-anchor="start" x="336" y="-1180.8" font-family="Helvetica Neue" font-size="14.00" fill="#333333">created_at (datetime)</text>
<polygon fill="#ffffff" stroke="transparent" points="325,-1129 325,-1166 469,-1166 469,-1129 325,-1129"/>
<polygon fill="none" stroke="black" points="325,-1129 325,-1166 469,-1166 469,-1129 325,-1129"/>
<text text-anchor="start" x="336" y="-1143.8" font-family="Helvetica Neue" font-size="14.00" fill="#333333">updated_at (datetime)</text>
<polygon fill="#ffffff" stroke="transparent" points="325,-1092 325,-1129 469,-1129 469,-1092 325,-1092"/>
<polygon fill="none" stroke="black" points="325,-1092 325,-1129 469,-1129 469,-1092 325,-1092"/>
<text text-anchor="start" x="336" y="-1106.8" font-family="Helvetica Neue" font-size="14.00" fill="#333333">bill_no (string)</text>
<polygon fill="#ffffff" stroke="transparent" points="325,-1055 325,-1092 469,-1092 469,-1055 325,-1055"/>
<polygon fill="none" stroke="black" points="325,-1055 325,-1092 469,-1092 469,-1055 325,-1055"/>
<text text-anchor="start" x="336" y="-1069.8" font-family="Helvetica Neue" font-size="14.00" fill="#333333">room_id (integer)</text>
<polygon fill="#ffffff" stroke="transparent" points="325,-1018 325,-1055 469,-1055 469,-1018 325,-1018"/>
<polygon fill="none" stroke="black" points="325,-1018 325,-1055 469,-1055 469,-1018 325,-1018"/>
<text text-anchor="start" x="336" y="-1032.8" font-family="Helvetica Neue" font-size="14.00" fill="#333333">doctor_charge (string)</text>
<polygon fill="#ffffff" stroke="transparent" points="325,-981 325,-1018 469,-1018 469,-981 325,-981"/>
<polygon fill="none" stroke="black" points="325,-981 325,-1018 469,-1018 469,-981 325,-981"/>
<text text-anchor="start" x="336" y="-995.8" font-family="Helvetica Neue" font-size="14.00" fill="#333333">room_charge (string)</text>
<polygon fill="#ffffff" stroke="transparent" points="325,-944 325,-981 469,-981 469,-944 325,-944"/>
<polygon fill="none" stroke="black" points="325,-944 325,-981 469,-981 469,-944 325,-944"/>
<text text-anchor="start" x="336" y="-958.8" font-family="Helvetica Neue" font-size="14.00" fill="#333333">total_charge (string)</text>
<polygon fill="#ffffff" stroke="transparent" points="325,-907 325,-944 469,-944 469,-907 325,-907"/>
<polygon fill="none" stroke="black" points="325,-907 325,-944 469,-944 469,-907 325,-907"/>
<text text-anchor="start" x="336" y="-921.8" font-family="Helvetica Neue" font-size="14.00" fill="#333333">doctor_id (integer)</text>
<polygon fill="#ffffff" stroke="transparent" points="325,-870 325,-907 469,-907 469,-870 325,-870"/>
<polygon fill="none" stroke="black" points="325,-870 325,-907 469,-907 469,-870 325,-870"/>
<text text-anchor="start" x="336" y="-884.8" font-family="Helvetica Neue" font-size="14.00" fill="#333333">bill_by (integer)</text>
<polygon fill="#ffffff" stroke="transparent" points="325,-833 325,-870 469,-870 469,-833 325,-833"/>
<polygon fill="none" stroke="black" points="325,-833 325,-870 469,-870 469,-833 325,-833"/>
<text text-anchor="start" x="336" y="-847.8" font-family="Helvetica Neue" font-size="14.00" fill="#333333">date (string)</text>
<polygon fill="#ffffff" stroke="transparent" points="325,-796 325,-833 469,-833 469,-796 325,-796"/>
<polygon fill="none" stroke="black" points="325,-796 325,-833 469,-833 469,-796 325,-796"/>
<text text-anchor="start" x="336" y="-810.8" font-family="Helvetica Neue" font-size="14.00" fill="#333333">notes (string)</text>
<polygon fill="#ffffff" stroke="transparent" points="325,-759 325,-796 469,-796 469,-759 325,-759"/>
<polygon fill="none" stroke="black" points="325,-759 325,-796 469,-796 469,-759 325,-759"/>
<text text-anchor="start" x="336" y="-773.8" font-family="Helvetica Neue" font-size="14.00" fill="#333333">patient_id (integer)</text>
</g>
<!-- appmodelsbill&#45;&gt;appmodelsdoctor -->
<g id="edge5" class="edge">
<title>appmodelsbill:doctor_id&#45;&gt;appmodelsdoctor:id</title>
<path fill="none" stroke="#f77f00" stroke-width="1.8" d="M480.07,-923.81C512.04,-920.02 610.58,-908.36 633.98,-905.59"/>
<polygon fill="#f77f00" stroke="#f77f00" stroke-width="1.8" points="479.93,-923.82 469.47,-920.53 474.97,-924.41 470,-925 470,-925 470,-925 474.97,-924.41 470.53,-929.47 479.93,-923.82 479.93,-923.82"/>
<polygon fill="#f77f00" stroke="#f77f00" stroke-width="1.8" points="637.42,-900.15 638.59,-910.08 636.61,-910.32 635.43,-900.39 637.42,-900.15"/>
<polyline fill="none" stroke="#f77f00" stroke-width="1.8" points="639,-905 634.03,-905.59 "/>
<text text-anchor="middle" x="550" y="-919.8" font-family="Helvetica Neue" font-size="14.00"> </text>
<text text-anchor="middle" x="527.52" y="-903.5" font-family="Helvetica Neue" font-size="14.00">BelongsTo</text>
<text text-anchor="middle" x="527.52" y="-888.5" font-family="Helvetica Neue" font-size="14.00">doctor</text>
</g>
<!-- appmodelsbill&#45;&gt;appmodelspatient -->
<g id="edge4" class="edge">
<title>appmodelsbill:patient_id&#45;&gt;appmodelspatient:id</title>
<path fill="none" stroke="#f77f00" stroke-width="1.8" d="M476.43,-768.92C495.77,-744.64 552,-674 552,-674 552,-674 627.2,-363.71 637.77,-320.07"/>
<polygon fill="#f77f00" stroke="#f77f00" stroke-width="1.8" points="476.23,-769.18 466.48,-774.2 473.11,-773.09 470,-777 470,-777 470,-777 473.11,-773.09 473.52,-779.8 476.23,-769.18 476.23,-769.18"/>
<polygon fill="#f77f00" stroke="#f77f00" stroke-width="1.8" points="633.91,-314.79 643.62,-317.15 643.15,-319.09 633.43,-316.74 633.91,-314.79"/>
<polyline fill="none" stroke="#f77f00" stroke-width="1.8" points="639,-315 637.82,-319.86 "/>
<text text-anchor="middle" x="550" y="-682.8" font-family="Helvetica Neue" font-size="14.00"> </text>
<text text-anchor="middle" x="551.1" y="-544.79" font-family="Helvetica Neue" font-size="14.00">BelongsTo</text>
<text text-anchor="middle" x="551.1" y="-529.79" font-family="Helvetica Neue" font-size="14.00">patient</text>
</g>
<!-- appmodelsroom -->
<g id="node5" class="node">
<title>appmodelsroom</title>
<polygon fill="none" stroke="black" points="800,-1439.5 624,-1439.5 624,-1032.5 800,-1032.5 800,-1439.5"/>
<polygon fill="#d3d3d3" stroke="transparent" points="624,-1402 624,-1439 800,-1439 800,-1402 624,-1402"/>
<polygon fill="none" stroke="black" points="624,-1402 624,-1439 800,-1439 800,-1402 624,-1402"/>
<text text-anchor="start" x="695" y="-1416.8" font-family="Helvetica Neue" font-size="14.00" fill="#333333">Room</text>
<polygon fill="#ffffff" stroke="transparent" points="624,-1365 624,-1402 800,-1402 800,-1365 624,-1365"/>
<polygon fill="none" stroke="black" points="624,-1365 624,-1402 800,-1402 800,-1365 624,-1365"/>
<text text-anchor="start" x="635" y="-1379.8" font-family="Helvetica Neue" font-size="14.00" fill="#333333">id (integer)</text>
<polygon fill="#ffffff" stroke="transparent" points="624,-1328 624,-1365 800,-1365 800,-1328 624,-1328"/>
<polygon fill="none" stroke="black" points="624,-1328 624,-1365 800,-1365 800,-1328 624,-1328"/>
<text text-anchor="start" x="635" y="-1342.8" font-family="Helvetica Neue" font-size="14.00" fill="#333333">created_at (datetime)</text>
<polygon fill="#ffffff" stroke="transparent" points="624,-1291 624,-1328 800,-1328 800,-1291 624,-1291"/>
<polygon fill="none" stroke="black" points="624,-1291 624,-1328 800,-1328 800,-1291 624,-1291"/>
<text text-anchor="start" x="635" y="-1305.8" font-family="Helvetica Neue" font-size="14.00" fill="#333333">updated_at (datetime)</text>
<polygon fill="#ffffff" stroke="transparent" points="624,-1254 624,-1291 800,-1291 800,-1254 624,-1254"/>
<polygon fill="none" stroke="black" points="624,-1254 624,-1291 800,-1291 800,-1254 624,-1254"/>
<text text-anchor="start" x="635" y="-1268.8" font-family="Helvetica Neue" font-size="14.00" fill="#333333">name (string)</text>
<polygon fill="#ffffff" stroke="transparent" points="624,-1217 624,-1254 800,-1254 800,-1217 624,-1217"/>
<polygon fill="none" stroke="black" points="624,-1217 624,-1254 800,-1254 800,-1217 624,-1217"/>
<text text-anchor="start" x="635" y="-1231.8" font-family="Helvetica Neue" font-size="14.00" fill="#333333">room_type (string)</text>
<polygon fill="#ffffff" stroke="transparent" points="624,-1180 624,-1217 800,-1217 800,-1180 624,-1180"/>
<polygon fill="none" stroke="black" points="624,-1180 624,-1217 800,-1217 800,-1180 624,-1180"/>
<text text-anchor="start" x="635" y="-1194.8" font-family="Helvetica Neue" font-size="14.00" fill="#333333">bed_count (string)</text>
<polygon fill="#ffffff" stroke="transparent" points="624,-1143 624,-1180 800,-1180 800,-1143 624,-1143"/>
<polygon fill="none" stroke="black" points="624,-1143 624,-1180 800,-1180 800,-1143 624,-1143"/>
<text text-anchor="start" x="635" y="-1157.8" font-family="Helvetica Neue" font-size="14.00" fill="#333333">room_size (string)</text>
<polygon fill="#ffffff" stroke="transparent" points="624,-1106 624,-1143 800,-1143 800,-1106 624,-1106"/>
<polygon fill="none" stroke="black" points="624,-1106 624,-1143 800,-1143 800,-1106 624,-1106"/>
<text text-anchor="start" x="635" y="-1120.8" font-family="Helvetica Neue" font-size="14.00" fill="#333333">is_air_conditioned (boolean)</text>
<polygon fill="#ffffff" stroke="transparent" points="624,-1069 624,-1106 800,-1106 800,-1069 624,-1069"/>
<polygon fill="none" stroke="black" points="624,-1069 624,-1106 800,-1106 800,-1069 624,-1069"/>
<text text-anchor="start" x="635" y="-1083.8" font-family="Helvetica Neue" font-size="14.00" fill="#333333">description (string)</text>
<polygon fill="#ffffff" stroke="transparent" points="624,-1032 624,-1069 800,-1069 800,-1032 624,-1032"/>
<polygon fill="none" stroke="black" points="624,-1032 624,-1069 800,-1069 800,-1032 624,-1032"/>
<text text-anchor="start" x="635" y="-1046.8" font-family="Helvetica Neue" font-size="14.00" fill="#333333">charge (string)</text>
</g>
<!-- appmodelsbill&#45;&gt;appmodelsroom -->
<g id="edge3" class="edge">
<title>appmodelsbill:room_id&#45;&gt;appmodelsroom:id</title>
<path fill="none" stroke="#f77f00" stroke-width="1.8" d="M474.61,-1083.28C498.13,-1130.63 604.35,-1344.45 621.62,-1379.22"/>
<polygon fill="#f77f00" stroke="#f77f00" stroke-width="1.8" points="474.45,-1082.96 474.03,-1072 472.22,-1078.48 470,-1074 470,-1074 470,-1074 472.22,-1078.48 465.97,-1076 474.45,-1082.96 474.45,-1082.96"/>
<polygon fill="#f77f00" stroke="#f77f00" stroke-width="1.8" points="628.03,-1380.88 619.08,-1385.33 618.19,-1383.54 627.14,-1379.09 628.03,-1380.88"/>
<polyline fill="none" stroke="#f77f00" stroke-width="1.8" points="624,-1384 621.78,-1379.52 "/>
<text text-anchor="middle" x="550" y="-1242.8" font-family="Helvetica Neue" font-size="14.00"> </text>
<text text-anchor="middle" x="518.62" y="-1220.05" font-family="Helvetica Neue" font-size="14.00">BelongsTo</text>
<text text-anchor="middle" x="518.62" y="-1205.05" font-family="Helvetica Neue" font-size="14.00">room</text>
</g>
<!-- appmodelstest -->
<g id="node7" class="node">
<title>appmodelstest</title>
<polygon fill="none" stroke="black" points="157,-1520 13,-1520 13,-1150 157,-1150 157,-1520"/>
<polygon fill="#d3d3d3" stroke="transparent" points="13,-1483 13,-1520 157,-1520 157,-1483 13,-1483"/>
<polygon fill="none" stroke="black" points="13,-1483 13,-1520 157,-1520 157,-1483 13,-1483"/>
<text text-anchor="start" x="73.5" y="-1497.8" font-family="Helvetica Neue" font-size="14.00" fill="#333333">Test</text>
<polygon fill="#ffffff" stroke="transparent" points="13,-1446 13,-1483 157,-1483 157,-1446 13,-1446"/>
<polygon fill="none" stroke="black" points="13,-1446 13,-1483 157,-1483 157,-1446 13,-1446"/>
<text text-anchor="start" x="24" y="-1460.8" font-family="Helvetica Neue" font-size="14.00" fill="#333333">id (integer)</text>
<polygon fill="#ffffff" stroke="transparent" points="13,-1409 13,-1446 157,-1446 157,-1409 13,-1409"/>
<polygon fill="none" stroke="black" points="13,-1409 13,-1446 157,-1446 157,-1409 13,-1409"/>
<text text-anchor="start" x="24" y="-1423.8" font-family="Helvetica Neue" font-size="14.00" fill="#333333">created_at (datetime)</text>
<polygon fill="#ffffff" stroke="transparent" points="13,-1372 13,-1409 157,-1409 157,-1372 13,-1372"/>
<polygon fill="none" stroke="black" points="13,-1372 13,-1409 157,-1409 157,-1372 13,-1372"/>
<text text-anchor="start" x="24" y="-1386.8" font-family="Helvetica Neue" font-size="14.00" fill="#333333">updated_at (datetime)</text>
<polygon fill="#ffffff" stroke="transparent" points="13,-1335 13,-1372 157,-1372 157,-1335 13,-1335"/>
<polygon fill="none" stroke="black" points="13,-1335 13,-1372 157,-1372 157,-1335 13,-1335"/>
<text text-anchor="start" x="24" y="-1349.8" font-family="Helvetica Neue" font-size="14.00" fill="#333333">test_name (string)</text>
<polygon fill="#ffffff" stroke="transparent" points="13,-1298 13,-1335 157,-1335 157,-1298 13,-1298"/>
<polygon fill="none" stroke="black" points="13,-1298 13,-1335 157,-1335 157,-1298 13,-1298"/>
<text text-anchor="start" x="24" y="-1312.8" font-family="Helvetica Neue" font-size="14.00" fill="#333333">patient_id (integer)</text>
<polygon fill="#ffffff" stroke="transparent" points="13,-1261 13,-1298 157,-1298 157,-1261 13,-1261"/>
<polygon fill="none" stroke="black" points="13,-1261 13,-1298 157,-1298 157,-1261 13,-1261"/>
<text text-anchor="start" x="24" y="-1275.8" font-family="Helvetica Neue" font-size="14.00" fill="#333333">doctor_id (integer)</text>
<polygon fill="#ffffff" stroke="transparent" points="13,-1224 13,-1261 157,-1261 157,-1224 13,-1224"/>
<polygon fill="none" stroke="black" points="13,-1224 13,-1261 157,-1261 157,-1224 13,-1224"/>
<text text-anchor="start" x="24" y="-1238.8" font-family="Helvetica Neue" font-size="14.00" fill="#333333">bill_id (integer)</text>
<polygon fill="#ffffff" stroke="transparent" points="13,-1187 13,-1224 157,-1224 157,-1187 13,-1187"/>
<polygon fill="none" stroke="black" points="13,-1187 13,-1224 157,-1224 157,-1187 13,-1187"/>
<text text-anchor="start" x="24" y="-1201.8" font-family="Helvetica Neue" font-size="14.00" fill="#333333">test_date (date)</text>
<polygon fill="#ffffff" stroke="transparent" points="13,-1150 13,-1187 157,-1187 157,-1150 13,-1150"/>
<polygon fill="none" stroke="black" points="13,-1150 13,-1187 157,-1187 157,-1150 13,-1150"/>
<text text-anchor="start" x="24" y="-1164.8" font-family="Helvetica Neue" font-size="14.00" fill="#333333">test_result (string)</text>
</g>
<!-- appmodelstest&#45;&gt;appmodelsdoctor -->
<g id="edge8" class="edge">
<title>appmodelstest:doctor_id&#45;&gt;appmodelsdoctor:id</title>
<path fill="none" stroke="#f77f00" stroke-width="1.8" d="M168.01,-1281.13C203.04,-1288.57 318,-1313 318,-1313 318,-1313 476,-1313 476,-1313 476,-1313 552,-1272 552,-1272 552,-1272 627.51,-953.46 637.84,-909.91"/>
<polygon fill="#f77f00" stroke="#f77f00" stroke-width="1.8" points="167.78,-1281.08 158.94,-1274.6 162.89,-1280.04 158,-1279 158,-1279 158,-1279 162.89,-1280.04 157.06,-1283.4 167.78,-1281.08 167.78,-1281.08"/>
<polygon fill="#f77f00" stroke="#f77f00" stroke-width="1.8" points="633.9,-904.82 643.63,-907.13 643.17,-909.07 633.44,-906.77 633.9,-904.82"/>
<polyline fill="none" stroke="#f77f00" stroke-width="1.8" points="639,-905 637.85,-909.87 "/>
<text text-anchor="middle" x="397" y="-1316.8" font-family="Helvetica Neue" font-size="14.00"> </text>
<text text-anchor="middle" x="511.25" y="-1266.87" font-family="Helvetica Neue" font-size="14.00">BelongsTo</text>
<text text-anchor="middle" x="511.25" y="-1251.87" font-family="Helvetica Neue" font-size="14.00">doctor</text>
</g>
<!-- appmodelstest&#45;&gt;appmodelspatient -->
<g id="edge7" class="edge">
<title>appmodelstest:patient_id&#45;&gt;appmodelspatient:id</title>
<path fill="none" stroke="#f77f00" stroke-width="1.8" d="M166.12,-1309.91C187.91,-1293.57 246,-1250 246,-1250 246,-1250 318,-266 318,-266 318,-266 476,-266 476,-266 476,-266 606.43,-305.21 633.94,-313.48"/>
<polygon fill="#f77f00" stroke="#f77f00" stroke-width="1.8" points="166,-1310 155.3,-1312.4 162,-1313 158,-1316 158,-1316 158,-1316 162,-1313 160.7,-1319.6 166,-1310 166,-1310"/>
<polygon fill="#f77f00" stroke="#f77f00" stroke-width="1.8" points="639.48,-309.92 636.6,-319.5 634.69,-318.92 637.57,-309.35 639.48,-309.92"/>
<polyline fill="none" stroke="#f77f00" stroke-width="1.8" points="639,-315 634.21,-313.56 "/>
<text text-anchor="middle" x="397" y="-269.8" font-family="Helvetica Neue" font-size="14.00"> </text>
<text text-anchor="middle" x="260.64" y="-635.56" font-family="Helvetica Neue" font-size="14.00">BelongsTo</text>
<text text-anchor="middle" x="260.64" y="-620.56" font-family="Helvetica Neue" font-size="14.00">patient</text>
</g>
<!-- appmodelstest&#45;&gt;appmodelsbill -->
<g id="edge9" class="edge">
<title>appmodelstest:bill_id&#45;&gt;appmodelsbill:id</title>
<path fill="none" stroke="#f77f00" stroke-width="1.8" d="M167.64,-1239.13C189.7,-1232.57 242,-1217 242,-1217 242,-1217 246,-1217 246,-1217 246,-1217 301.53,-1220.56 318.88,-1221.67"/>
<polygon fill="#f77f00" stroke="#f77f00" stroke-width="1.8" points="167.58,-1239.15 156.72,-1237.69 162.79,-1240.57 158,-1242 158,-1242 158,-1242 162.79,-1240.57 159.28,-1246.31 167.58,-1239.15 167.58,-1239.15"/>
<polygon fill="#f77f00" stroke="#f77f00" stroke-width="1.8" points="323.32,-1216.95 322.68,-1226.93 320.69,-1226.8 321.33,-1216.82 323.32,-1216.95"/>
<polyline fill="none" stroke="#f77f00" stroke-width="1.8" points="324,-1222 319.01,-1221.68 "/>
<text text-anchor="middle" x="244" y="-1220.8" font-family="Helvetica Neue" font-size="14.00"> </text>
<text text-anchor="middle" x="212.23" y="-1205.88" font-family="Helvetica Neue" font-size="14.00">BelongsTo</text>
<text text-anchor="middle" x="212.23" y="-1190.88" font-family="Helvetica Neue" font-size="14.00">bill</text>
</g>
<!-- appmodelsemployee -->
<g id="node8" class="node">
<title>appmodelsemployee</title>
<polygon fill="none" stroke="black" points="157,-1999.5 13,-1999.5 13,-1592.5 157,-1592.5 157,-1999.5"/>
<polygon fill="#d3d3d3" stroke="transparent" points="13,-1962 13,-1999 157,-1999 157,-1962 13,-1962"/>
<polygon fill="none" stroke="black" points="13,-1962 13,-1999 157,-1999 157,-1962 13,-1962"/>
<text text-anchor="start" x="57.5" y="-1976.8" font-family="Helvetica Neue" font-size="14.00" fill="#333333">Employee</text>
<polygon fill="#ffffff" stroke="transparent" points="13,-1925 13,-1962 157,-1962 157,-1925 13,-1925"/>
<polygon fill="none" stroke="black" points="13,-1925 13,-1962 157,-1962 157,-1925 13,-1925"/>
<text text-anchor="start" x="24" y="-1939.8" font-family="Helvetica Neue" font-size="14.00" fill="#333333">id (integer)</text>
<polygon fill="#ffffff" stroke="transparent" points="13,-1888 13,-1925 157,-1925 157,-1888 13,-1888"/>
<polygon fill="none" stroke="black" points="13,-1888 13,-1925 157,-1925 157,-1888 13,-1888"/>
<text text-anchor="start" x="24" y="-1902.8" font-family="Helvetica Neue" font-size="14.00" fill="#333333">created_at (datetime)</text>
<polygon fill="#ffffff" stroke="transparent" points="13,-1851 13,-1888 157,-1888 157,-1851 13,-1851"/>
<polygon fill="none" stroke="black" points="13,-1851 13,-1888 157,-1888 157,-1851 13,-1851"/>
<text text-anchor="start" x="24" y="-1865.8" font-family="Helvetica Neue" font-size="14.00" fill="#333333">updated_at (datetime)</text>
<polygon fill="#ffffff" stroke="transparent" points="13,-1814 13,-1851 157,-1851 157,-1814 13,-1814"/>
<polygon fill="none" stroke="black" points="13,-1814 13,-1851 157,-1851 157,-1814 13,-1814"/>
<text text-anchor="start" x="24" y="-1828.8" font-family="Helvetica Neue" font-size="14.00" fill="#333333">eid (string)</text>
<polygon fill="#ffffff" stroke="transparent" points="13,-1777 13,-1814 157,-1814 157,-1777 13,-1777"/>
<polygon fill="none" stroke="black" points="13,-1777 13,-1814 157,-1814 157,-1777 13,-1777"/>
<text text-anchor="start" x="24" y="-1791.8" font-family="Helvetica Neue" font-size="14.00" fill="#333333">name (string)</text>
<polygon fill="#ffffff" stroke="transparent" points="13,-1740 13,-1777 157,-1777 157,-1740 13,-1740"/>
<polygon fill="none" stroke="black" points="13,-1740 13,-1777 157,-1777 157,-1740 13,-1740"/>
<text text-anchor="start" x="24" y="-1754.8" font-family="Helvetica Neue" font-size="14.00" fill="#333333">phone (string)</text>
<polygon fill="#ffffff" stroke="transparent" points="13,-1703 13,-1740 157,-1740 157,-1703 13,-1703"/>
<polygon fill="none" stroke="black" points="13,-1703 13,-1740 157,-1740 157,-1703 13,-1703"/>
<text text-anchor="start" x="24" y="-1717.8" font-family="Helvetica Neue" font-size="14.00" fill="#333333">salary (string)</text>
<polygon fill="#ffffff" stroke="transparent" points="13,-1666 13,-1703 157,-1703 157,-1666 13,-1666"/>
<polygon fill="none" stroke="black" points="13,-1666 13,-1703 157,-1703 157,-1666 13,-1666"/>
<text text-anchor="start" x="24" y="-1680.8" font-family="Helvetica Neue" font-size="14.00" fill="#333333">address (string)</text>
<polygon fill="#ffffff" stroke="transparent" points="13,-1629 13,-1666 157,-1666 157,-1629 13,-1629"/>
<polygon fill="none" stroke="black" points="13,-1629 13,-1666 157,-1666 157,-1629 13,-1629"/>
<text text-anchor="start" x="24" y="-1643.8" font-family="Helvetica Neue" font-size="14.00" fill="#333333">gender (string)</text>
<polygon fill="#ffffff" stroke="transparent" points="13,-1592 13,-1629 157,-1629 157,-1592 13,-1592"/>
<polygon fill="none" stroke="black" points="13,-1592 13,-1629 157,-1629 157,-1592 13,-1592"/>
<text text-anchor="start" x="24" y="-1606.8" font-family="Helvetica Neue" font-size="14.00" fill="#333333">nid (string)</text>
</g>
<!-- appmodelsmedicine -->
<g id="node9" class="node">
<title>appmodelsmedicine</title>
<polygon fill="none" stroke="black" points="157,-2294 13,-2294 13,-2072 157,-2072 157,-2294"/>
<polygon fill="#d3d3d3" stroke="transparent" points="13,-2257 13,-2294 157,-2294 157,-2257 13,-2257"/>
<polygon fill="none" stroke="black" points="13,-2257 13,-2294 157,-2294 157,-2257 13,-2257"/>
<text text-anchor="start" x="59.5" y="-2271.8" font-family="Helvetica Neue" font-size="14.00" fill="#333333">Medicine</text>
<polygon fill="#ffffff" stroke="transparent" points="13,-2220 13,-2257 157,-2257 157,-2220 13,-2220"/>
<polygon fill="none" stroke="black" points="13,-2220 13,-2257 157,-2257 157,-2220 13,-2220"/>
<text text-anchor="start" x="24" y="-2234.8" font-family="Helvetica Neue" font-size="14.00" fill="#333333">id (integer)</text>
<polygon fill="#ffffff" stroke="transparent" points="13,-2183 13,-2220 157,-2220 157,-2183 13,-2183"/>
<polygon fill="none" stroke="black" points="13,-2183 13,-2220 157,-2220 157,-2183 13,-2183"/>
<text text-anchor="start" x="24" y="-2197.8" font-family="Helvetica Neue" font-size="14.00" fill="#333333">created_at (datetime)</text>
<polygon fill="#ffffff" stroke="transparent" points="13,-2146 13,-2183 157,-2183 157,-2146 13,-2146"/>
<polygon fill="none" stroke="black" points="13,-2146 13,-2183 157,-2183 157,-2146 13,-2146"/>
<text text-anchor="start" x="24" y="-2160.8" font-family="Helvetica Neue" font-size="14.00" fill="#333333">updated_at (datetime)</text>
<polygon fill="#ffffff" stroke="transparent" points="13,-2109 13,-2146 157,-2146 157,-2109 13,-2109"/>
<polygon fill="none" stroke="black" points="13,-2109 13,-2146 157,-2146 157,-2109 13,-2109"/>
<text text-anchor="start" x="24" y="-2123.8" font-family="Helvetica Neue" font-size="14.00" fill="#333333">name (string)</text>
<polygon fill="#ffffff" stroke="transparent" points="13,-2072 13,-2109 157,-2109 157,-2072 13,-2072"/>
<polygon fill="none" stroke="black" points="13,-2072 13,-2109 157,-2109 157,-2072 13,-2072"/>
<text text-anchor="start" x="24" y="-2086.8" font-family="Helvetica Neue" font-size="14.00" fill="#333333">price (string)</text>
</g>
<!-- appmodelsuser -->
<g id="node10" class="node">
<title>appmodelsuser</title>
<polygon fill="none" stroke="black" points="170,-2736 0,-2736 0,-2366 170,-2366 170,-2736"/>
<polygon fill="#d3d3d3" stroke="transparent" points="0,-2699 0,-2736 170,-2736 170,-2699 0,-2699"/>
<polygon fill="none" stroke="black" points="0,-2699 0,-2736 170,-2736 170,-2699 0,-2699"/>
<text text-anchor="start" x="72" y="-2713.8" font-family="Helvetica Neue" font-size="14.00" fill="#333333">User</text>
<polygon fill="#ffffff" stroke="transparent" points="0,-2662 0,-2699 170,-2699 170,-2662 0,-2662"/>
<polygon fill="none" stroke="black" points="0,-2662 0,-2699 170,-2699 170,-2662 0,-2662"/>
<text text-anchor="start" x="11" y="-2676.8" font-family="Helvetica Neue" font-size="14.00" fill="#333333">id (bigint)</text>
<polygon fill="#ffffff" stroke="transparent" points="0,-2625 0,-2662 170,-2662 170,-2625 0,-2625"/>
<polygon fill="none" stroke="black" points="0,-2625 0,-2662 170,-2662 170,-2625 0,-2625"/>
<text text-anchor="start" x="11" y="-2639.8" font-family="Helvetica Neue" font-size="14.00" fill="#333333">name (string)</text>
<polygon fill="#ffffff" stroke="transparent" points="0,-2588 0,-2625 170,-2625 170,-2588 0,-2588"/>
<polygon fill="none" stroke="black" points="0,-2588 0,-2625 170,-2625 170,-2588 0,-2588"/>
<text text-anchor="start" x="11" y="-2602.8" font-family="Helvetica Neue" font-size="14.00" fill="#333333">user_type (string)</text>
<polygon fill="#ffffff" stroke="transparent" points="0,-2551 0,-2588 170,-2588 170,-2551 0,-2551"/>
<polygon fill="none" stroke="black" points="0,-2551 0,-2588 170,-2588 170,-2551 0,-2551"/>
<text text-anchor="start" x="11" y="-2565.8" font-family="Helvetica Neue" font-size="14.00" fill="#333333">email (string)</text>
<polygon fill="#ffffff" stroke="transparent" points="0,-2514 0,-2551 170,-2551 170,-2514 0,-2514"/>
<polygon fill="none" stroke="black" points="0,-2514 0,-2551 170,-2551 170,-2514 0,-2514"/>
<text text-anchor="start" x="11" y="-2528.8" font-family="Helvetica Neue" font-size="14.00" fill="#333333">email_verified_at (datetime)</text>
<polygon fill="#ffffff" stroke="transparent" points="0,-2477 0,-2514 170,-2514 170,-2477 0,-2477"/>
<polygon fill="none" stroke="black" points="0,-2477 0,-2514 170,-2514 170,-2477 0,-2477"/>
<text text-anchor="start" x="11" y="-2491.8" font-family="Helvetica Neue" font-size="14.00" fill="#333333">password (string)</text>
<polygon fill="#ffffff" stroke="transparent" points="0,-2440 0,-2477 170,-2477 170,-2440 0,-2440"/>
<polygon fill="none" stroke="black" points="0,-2440 0,-2477 170,-2477 170,-2440 0,-2440"/>
<text text-anchor="start" x="11" y="-2454.8" font-family="Helvetica Neue" font-size="14.00" fill="#333333">remember_token (string)</text>
<polygon fill="#ffffff" stroke="transparent" points="0,-2403 0,-2440 170,-2440 170,-2403 0,-2403"/>
<polygon fill="none" stroke="black" points="0,-2403 0,-2440 170,-2440 170,-2403 0,-2403"/>
<text text-anchor="start" x="11" y="-2417.8" font-family="Helvetica Neue" font-size="14.00" fill="#333333">created_at (datetime)</text>
<polygon fill="#ffffff" stroke="transparent" points="0,-2366 0,-2403 170,-2403 170,-2366 0,-2366"/>
<polygon fill="none" stroke="black" points="0,-2366 0,-2403 170,-2403 170,-2366 0,-2366"/>
<text text-anchor="start" x="11" y="-2380.8" font-family="Helvetica Neue" font-size="14.00" fill="#333333">updated_at (datetime)</text>
</g>
</g>
</svg>
